<?xml version="1.0" encoding="utf-8"?>
<!-- Generator: Adobe Illustrator 18.0.0, SVG Export Plug-In . SVG Version: 6.00 Build 0)  -->
<!DOCTYPE svg PUBLIC "-//W3C//DTD SVG 1.1//EN" "http://www.w3.org/Graphics/SVG/1.1/DTD/svg11.dtd">
<svg version="1.1" id="图层_1" xmlns:sketch="http://www.bohemiancoding.com/sketch/ns"
	 xmlns="http://www.w3.org/2000/svg" xmlns:xlink="http://www.w3.org/1999/xlink" x="0px" y="0px" viewBox="0 0 210 210"
	 enable-background="new 0 0 210 210" xml:space="preserve">
<title>Slice 1</title>
<desc>Created with Sketch.</desc>
<g>
	<g>
		<path fill="#EC6B2D" d="M112.9,125.8L112.9,125.8l-5.2,5.3l2.9,8.1l23.3,37.3l30.2,5.8l-5.8-30.2L117.9,127l-1.4-3.7L112.9,125.8z
			 M154.8,173.1l-16.4-3.1l-21.9-35.2l35.2,21.9L154.8,173.1z"/>
		<path fill="#EC6B2D" d="M129.1,113.3l23.7-14.8l1.4-22.7l-22.7,1.4l-14.2,22.7l-5.8,7.1l2.9,9.7l10,2.1L129.1,113.3z M135.7,84.3
			l10.6-0.6l-0.6,10.6l-26.6,16.6L135.7,84.3z"/>
		<polygon fill="none" points="146.3,83.6 135.7,84.3 119.1,110.9 145.7,94.3 		"/>
		<polygon fill="none" points="138.5,170 154.8,173.1 151.7,156.7 116.5,134.8 		"/>
		<path fill="#F19E2C" d="M180.5,141.5l29.5-20l-29.5-20l-51.4,11.9l0,0l0,0l-14.7,3.4v0l-3.6,0.5l-1.2,6.1l3.3,2.5l5,1.2h0h0
			L180.5,141.5z M179,109.3l17.9,12.1L179,133.6l-52.3-12.1L179,109.3z"/>
	</g>
	<g>
		<path fill="#EC6B2D" d="M93.5,123.3l-1.4,3.7l-40.4,25.2l-5.8,30.2l30.2-5.8l23.3-37.3l2.9-8.1l-5.2-5.3l0,0L93.5,123.3z
			 M58.3,156.7l35.2-21.9L71.5,170l-16.4,3.1L58.3,156.7z"/>
		<path fill="#EC6B2D" d="M85.6,118.8l10-2.1l2.9-9.7l-5.8-7.1L78.5,77.2l-22.7-1.4l1.4,22.7l23.7,14.8L85.6,118.8z M90.9,110.9
			L64.3,94.3l-0.6-10.6l10.6,0.6L90.9,110.9z"/>
		<polygon fill="none" points="63.7,83.6 74.3,84.3 90.9,110.9 64.3,94.3 		"/>
		<polygon fill="none" points="71.5,170 55.2,173.1 58.3,156.7 93.5,134.8 		"/>
		<path fill="#F19E2C" d="M92.1,127L92.1,127L92.1,127l5-1.2l3.3-2.5l-1.2-6.1l-3.6-0.5v0l-14.7-3.4l0,0l0,0l-51.4-11.9L0,121.4
			l29.5,20L92.1,127z M83.3,121.4L31,133.6l-17.9-12.1L31,109.3L83.3,121.4z"/>
	</g>
	<g>
		<path fill="#D5442B" d="M105,172.6L85.6,57.7L105,27.6l19.4,30.1L105,172.6z M93.3,59.3l11.7,69.1l11.7-69.1L105,41.2L93.3,59.3z"
			/>
	</g>
</g>
</svg>
