<?xml version="1.0" encoding="utf-8"?>
<!-- Generator: Adobe Illustrator 18.0.0, SVG Export Plug-In . SVG Version: 6.00 Build 0)  -->
<!DOCTYPE svg PUBLIC "-//W3C//DTD SVG 1.1//EN" "http://www.w3.org/Graphics/SVG/1.1/DTD/svg11.dtd">
<svg version="1.1" id="图层_1" xmlns:sketch="http://www.bohemiancoding.com/sketch/ns"
	 xmlns="http://www.w3.org/2000/svg" xmlns:xlink="http://www.w3.org/1999/xlink" x="0px" y="0px" viewBox="907 201.5 595.3 438.6"
	 enable-background="new 907 201.5 595.3 438.6" xml:space="preserve">
<title>Slice 1</title>
<desc>Created with Sketch.</desc>
<g>
	<g>
		<polygon fill="#EC6B2D" points="1355.7,554.5 1241.2,483.3 1237.2,472.8 1227,479.9 1212.3,494.9 1220.5,517.9 1286.6,623.6 
			1372.2,640.1 		"/>
		<polygon fill="#EC6B2D" points="1279.8,342.1 1239.5,406.5 1223.1,426.6 1231.3,454.1 1259.6,460.1 1273,444.5 1340.1,402.5 
			1344.1,338.2 		"/>
		<polygon fill="#F19E2C" points="1418.7,411 1273,444.8 1231.3,454.4 1221.1,455.8 1217.7,473.1 1227,480.2 1241.2,483.6 
			1418.7,524.4 1502.3,467.7 		"/>
	</g>
	<g>
		<polygon fill="#EC6B2D" points="1053.6,554.5 1168.1,483.3 1172,472.8 1182.2,479.9 1197,494.9 1188.8,517.9 1122.7,623.6 
			1037.1,640.1 		"/>
		<polygon fill="#EC6B2D" points="1129.5,342.1 1169.8,406.5 1186.2,426.6 1178,454.1 1149.6,460.1 1136.3,444.5 1069.1,402.5 
			1065.2,338.2 		"/>
		<polygon fill="#F19E2C" points="990.6,411 1136.3,444.8 1178,454.4 1188.2,455.8 1191.6,473.1 1182.2,480.2 1168.1,483.6 
			990.6,524.4 907,467.7 		"/>
	</g>
	<polygon fill="#D5442B" points="1204.6,201.5 1149.6,286.9 1204.6,612.6 1259.6,286.9 	"/>
</g>
</svg>
